<svg xlink="http://www.w3.org/1999/xlink" viewBox="0 0 5000 5000" xmlns="http://www.w3.org/2000/svg" style="transform: scale(1);"><defs><filter id="goo"><feGaussianBlur in="SourceGraphic" stdDeviation="0" result="blur"></feGaussianBlur><feColorMatrix in="blur" type="matrix" values="1 0 0 0 0 0 1 0 0 0 0 0 1 0 0 0 0 0 19 -9" result="good"></feColorMatrix><feComposite in="SourceGraphic" in2="goo" operator="atop"></feComposite></filter><path d="M261,267C251,261 245,260 234,262Q221,257 230,249Q243,221 266,238L261,267z" id="P0"></path><path d="M247,268L232,247L262,237L265,240L247,268z" id="P1"></path><path d="M224,231Q232,205 256,219Q298,244 265,278L240,280Q204,265 224,231z" id="P2"></path><path d="M269,250L242,267L232,245L264,237L269,250z" id="P3"></path><path d="M258,225L268,269L253,276L224,245C240,240 246,236 258,225z" id="P4"></path><path d="M238,253L245,239L261,255L246,261L238,253z" id="P5"></path><path d="M230,254C240,247 243,242 245,231Q254,220 260,232C271,243 270,260 257,269C248,261 243,258 230,254z" id="P6"></path><path d="M244,265L236,243L264,241L265,245L244,265z" id="P7"></path><path d="M246,285L217,237C228,219 248,212 265,218C285,233 288,260 271,278L246,285z" id="P8"></path><path d="M230,249L259,232L268,260L256,269L230,249z" id="P9"></path><path d="M233,286L210,247C214,227 229,212 253,210C283,219 295,250 277,279L233,286z" id="P10"></path><path d="M249,261L244,241L251,239L261,249L249,261z" id="P11"></path></defs><rect id="RECT" width="5000" height="5000" fill="#FFFFFF"></rect><g id="group" fill="#657B9F" filter=""><use x="-85" y="-42" href="#P10"></use><use x="-66" y="31" href="#P11"></use><use x="-249" y="383" href="#P9"></use><use x="-171" y="467" href="#P2"></use><use x="-157" y="744" href="#P8"></use><use x="-193" y="890" href="#P2"></use><use x="-278" y="1114" href="#P0"></use><use x="-121" y="1565" href="#P11"></use><use x="23" y="1685" href="#P1"></use><use x="-59" y="1907" href="#P11"></use><use x="-184" y="2118" href="#P6"></use><use x="-62" y="2419" href="#P11"></use><use x="-52" y="2483" href="#P4"></use><use x="-26" y="2798" href="#P4"></use><use x="-174" y="2946" href="#P9"></use><use x="-53" y="3321" href="#P1"></use><use x="-223" y="3551" href="#P10"></use><use x="-12" y="3641" href="#P5"></use><use x="-4" y="3815" href="#P9"></use><use x="-151" y="4086" href="#P11"></use><use x="-166" y="4373" href="#P1"></use><use x="-86" y="4684" href="#P4"></use><use x="-22" y="4848" href="#P4"></use><use x="-203" y="5125" href="#P4"></use><use x="-137" y="5343" href="#P0"></use><use x="200" y="-103" href="#P4"></use><use x="0" y="175" href="#P5"></use><use x="-4" y="222" href="#P8"></use><use x="117" y="424" href="#P7"></use><use x="-58" y="667" href="#P9"></use><use x="7" y="902" href="#P2"></use><use x="50" y="1286" href="#P2"></use><use x="222" y="1357" href="#P6"></use><use x="33" y="1633" href="#P6"></use><use x="177" y="1945" href="#P0"></use><use x="117" y="2191" href="#P9"></use><use x="110" y="2259" href="#P2"></use><use x="67" y="2494" href="#P9"></use><use x="76" y="2899" href="#P7"></use><use x="130" y="3018" href="#P11"></use><use x="207" y="3307" href="#P3"></use><use x="210" y="3419" href="#P11"></use><use x="31" y="3745" href="#P4"></use><use x="59" y="3904" href="#P11"></use><use x="83" y="4184" href="#P5"></use><use x="66" y="4419" href="#P3"></use><use x="59" y="4545" href="#P1"></use><use x="-36" y="4749" href="#P6"></use><use x="111" y="4937" href="#P9"></use><use x="50" y="5321" href="#P7"></use><use x="364" y="-210" href="#P7"></use><use x="248" y="27" href="#P10"></use><use x="236" y="378" href="#P11"></use><use x="253" y="617" href="#P3"></use><use x="441" y="889" href="#P6"></use><use x="408" y="961" href="#P0"></use><use x="357" y="1252" href="#P5"></use><use x="299" y="1457" href="#P11"></use><use x="238" y="1629" href="#P8"></use><use x="331" y="1959" href="#P9"></use><use x="240" y="2218" href="#P2"></use><use x="207" y="2266" href="#P5"></use><use x="199" y="2551" href="#P4"></use><use x="242" y="2750" href="#P0"></use><use x="295" y="3056" href="#P2"></use><use x="341" y="3294" href="#P9"></use><use x="251" y="3384" href="#P9"></use><use x="320" y="3700" href="#P8"></use><use x="247" y="4017" href="#P5"></use><use x="338" y="4059" href="#P6"></use><use x="268" y="4441" href="#P2"></use><use x="214" y="4550" href="#P4"></use><use x="378" y="4965" href="#P7"></use><use x="228" y="5062" href="#P10"></use><use x="410" y="5186" href="#P2"></use><use x="475" y="-222" href="#P2"></use><use x="565" y="102" href="#P8"></use><use x="618" y="352" href="#P11"></use><use x="684" y="686" href="#P9"></use><use x="485" y="709" href="#P3"></use><use x="653" y="879" href="#P5"></use><use x="571" y="1155" href="#P5"></use><use x="431" y="1447" href="#P10"></use><use x="441" y="1581" href="#P3"></use><use x="447" y="1824" href="#P1"></use><use x="395" y="2148" href="#P8"></use><use x="440" y="2441" href="#P2"></use><use x="628" y="2485" href="#P4"></use><use x="459" y="2907" href="#P1"></use><use x="660" y="3108" href="#P5"></use><use x="656" y="3181" href="#P3"></use><use x="452" y="3462" href="#P6"></use><use x="549" y="3794" href="#P6"></use><use x="618" y="3955" href="#P6"></use><use x="576" y="4047" href="#P6"></use><use x="479" y="4334" href="#P5"></use><use x="596" y="4508" href="#P2"></use><use x="568" y="4936" href="#P0"></use><use x="508" y="4998" href="#P2"></use><use x="642" y="5300" href="#P9"></use><use x="855" y="-130" href="#P5"></use><use x="884" y="74" href="#P0"></use><use x="794" y="372" href="#P4"></use><use x="762" y="565" href="#P7"></use><use x="708" y="792" href="#P3"></use><use x="650" y="1001" href="#P5"></use><use x="778" y="1164" href="#P4"></use><use x="691" y="1443" href="#P0"></use><use x="724" y="1739" href="#P1"></use><use x="889" y="1906" href="#P5"></use><use x="835" y="2068" href="#P2"></use><use x="717" y="2260" href="#P5"></use><use x="845" y="2544" href="#P2"></use><use x="942" y="2714" href="#P8"></use><use x="824" y="2974" href="#P8"></use><use x="766" y="3160" href="#P3"></use><use x="869" y="3533" href="#P11"></use><use x="753" y="3673" href="#P4"></use><use x="834" y="3927" href="#P3"></use><use x="721" y="4211" href="#P2"></use><use x="852" y="4357" href="#P2"></use><use x="714" y="4617" href="#P5"></use><use x="895" y="4767" href="#P0"></use><use x="731" y="5149" href="#P5"></use><use x="839" y="5212" href="#P3"></use><use x="1104" y="-87" href="#P8"></use><use x="967" y="-8" href="#P8"></use><use x="1118" y="397" href="#P0"></use><use x="1002" y="531" href="#P10"></use><use x="992" y="782" href="#P4"></use><use x="1014" y="1016" href="#P0"></use><use x="859" y="1121" href="#P5"></use><use x="979" y="1452" href="#P4"></use><use x="1031" y="1683" href="#P5"></use><use x="968" y="1804" href="#P2"></use><use x="1090" y="2139" href="#P3"></use><use x="1057" y="2309" href="#P5"></use><use x="1004" y="2465" href="#P10"></use><use x="1073" y="2767" href="#P0"></use><use x="957" y="2922" href="#P5"></use><use x="1093" y="3183" href="#P4"></use><use x="946" y="3512" href="#P6"></use><use x="954" y="3618" href="#P10"></use><use x="1068" y="4048" href="#P5"></use><use x="1004" y="4220" href="#P10"></use><use x="1107" y="4472" href="#P9"></use><use x="953" y="4582" href="#P10"></use><use x="1059" y="4745" href="#P4"></use><use x="971" y="5003" href="#P11"></use><use x="880" y="5286" href="#P7"></use><use x="1149" y="-284" href="#P3"></use><use x="1364" y="192" href="#P11"></use><use x="1354" y="297" href="#P6"></use><use x="1183" y="459" href="#P1"></use><use x="1320" y="695" href="#P9"></use><use x="1224" y="1088" href="#P5"></use><use x="1297" y="1122" href="#P11"></use><use x="1345" y="1371" href="#P3"></use><use x="1311" y="1605" href="#P0"></use><use x="1245" y="1928" href="#P6"></use><use x="1282" y="2110" href="#P3"></use><use x="1252" y="2227" href="#P8"></use><use x="1122" y="2506" href="#P2"></use><use x="1157" y="2894" href="#P11"></use><use x="1232" y="2949" href="#P4"></use><use x="1202" y="3120" href="#P3"></use><use x="1294" y="3415" href="#P8"></use><use x="1217" y="3738" href="#P0"></use><use x="1137" y="4056" href="#P10"></use><use x="1247" y="4251" href="#P8"></use><use x="1113" y="4344" href="#P3"></use><use x="1211" y="4658" href="#P2"></use><use x="1365" y="4788" href="#P0"></use><use x="1107" y="5211" href="#P8"></use><use x="1149" y="5370" href="#P0"></use><use x="1450" y="-219" href="#P4"></use><use x="1444" y="32" href="#P0"></use><use x="1399" y="350" href="#P11"></use><use x="1411" y="503" href="#P11"></use><use x="1345" y="708" href="#P5"></use><use x="1521" y="971" href="#P7"></use><use x="1395" y="1186" href="#P2"></use><use x="1475" y="1499" href="#P6"></use><use x="1363" y="1745" href="#P5"></use><use x="1376" y="1912" href="#P11"></use><use x="1477" y="2070" href="#P8"></use><use x="1457" y="2273" href="#P11"></use><use x="1552" y="2573" href="#P1"></use><use x="1474" y="2748" href="#P9"></use><use x="1515" y="3146" href="#P6"></use><use x="1343" y="3341" href="#P10"></use><use x="1408" y="3552" href="#P6"></use><use x="1506" y="3758" href="#P11"></use><use x="1370" y="3886" href="#P10"></use><use x="1427" y="4287" href="#P4"></use><use x="1504" y="4520" href="#P5"></use><use x="1558" y="4547" href="#P4"></use><use x="1400" y="4722" href="#P4"></use><use x="1384" y="5001" href="#P2"></use><use x="1406" y="5262" href="#P4"></use><use x="1625" y="-151" href="#P6"></use><use x="1650" y="165" href="#P1"></use><use x="1630" y="236" href="#P5"></use><use x="1645" y="450" href="#P5"></use><use x="1668" y="695" href="#P1"></use><use x="1741" y="1128" href="#P7"></use><use x="1668" y="1301" href="#P9"></use><use x="1729" y="1466" href="#P7"></use><use x="1696" y="1535" href="#P6"></use><use x="1755" y="1968" href="#P9"></use><use x="1639" y="2052" href="#P8"></use><use x="1649" y="2422" href="#P5"></use><use x="1594" y="2670" href="#P3"></use><use x="1624" y="2821" href="#P10"></use><use x="1805" y="2905" href="#P4"></use><use x="1817" y="3144" href="#P5"></use><use x="1751" y="3441" href="#P7"></use><use x="1694" y="3677" href="#P4"></use><use x="1676" y="3817" href="#P8"></use><use x="1804" y="4227" href="#P3"></use><use x="1630" y="4501" href="#P5"></use><use x="1647" y="4589" href="#P5"></use><use x="1740" y="4798" href="#P3"></use><use x="1671" y="4989" href="#P6"></use><use x="1785" y="5348" href="#P6"></use><use x="1835" y="-204" href="#P2"></use><use x="1880" y="97" href="#P11"></use><use x="2011" y="324" href="#P9"></use><use x="1866" y="525" href="#P0"></use><use x="1956" y="673" href="#P4"></use><use x="1966" y="1082" href="#P3"></use><use x="1894" y="1255" href="#P9"></use><use x="2021" y="1416" href="#P3"></use><use x="2044" y="1709" href="#P0"></use><use x="1852" y="1917" href="#P4"></use><use x="2041" y="2251" href="#P0"></use><use x="2040" y="2305" href="#P6"></use><use x="1992" y="2482" href="#P8"></use><use x="1841" y="2892" href="#P1"></use><use x="2061" y="2972" href="#P7"></use><use x="1947" y="3254" href="#P10"></use><use x="1793" y="3414" href="#P1"></use><use x="1931" y="3661" href="#P10"></use><use x="1838" y="3926" href="#P11"></use><use x="1832" y="4109" href="#P8"></use><use x="1858" y="4328" href="#P2"></use><use x="1866" y="4674" href="#P0"></use><use x="2008" y="4868" href="#P4"></use><use x="1906" y="4967" href="#P5"></use><use x="1908" y="5361" href="#P0"></use><use x="2273" y="-68" href="#P5"></use><use x="2099" y="119" href="#P1"></use><use x="2178" y="315" href="#P8"></use><use x="2170" y="393" href="#P9"></use><use x="2129" y="812" href="#P2"></use><use x="2217" y="1033" href="#P2"></use><use x="2192" y="1224" href="#P3"></use><use x="2129" y="1384" href="#P3"></use><use x="2165" y="1732" href="#P5"></use><use x="2226" y="1975" href="#P8"></use><use x="2264" y="2100" href="#P9"></use><use x="2080" y="2417" href="#P5"></use><use x="2115" y="2637" href="#P7"></use><use x="2255" y="2845" href="#P6"></use><use x="2199" y="3002" href="#P4"></use><use x="2153" y="3164" href="#P7"></use><use x="2134" y="3376" href="#P4"></use><use x="2108" y="3769" href="#P0"></use><use x="2181" y="3922" href="#P5"></use><use x="2147" y="4169" href="#P2"></use><use x="2153" y="4367" href="#P11"></use><use x="2218" y="4631" href="#P0"></use><use x="2232" y="4938" href="#P5"></use><use x="2061" y="4944" href="#P0"></use><use x="2178" y="5331" href="#P5"></use><use x="2308" y="-212" href="#P1"></use><use x="2353" y="42" href="#P6"></use><use x="2401" y="269" href="#P3"></use><use x="2324" y="369" href="#P6"></use><use x="2284" y="723" href="#P1"></use><use x="2355" y="986" href="#P3"></use><use x="2416" y="1273" href="#P7"></use><use x="2371" y="1414" href="#P11"></use><use x="2282" y="1581" href="#P1"></use><use x="2315" y="1815" href="#P6"></use><use x="2378" y="2197" href="#P3"></use><use x="2467" y="2350" href="#P9"></use><use x="2326" y="2513" href="#P8"></use><use x="2469" y="2727" href="#P4"></use><use x="2398" y="2962" href="#P6"></use><use x="2464" y="3260" href="#P4"></use><use x="2313" y="3616" href="#P9"></use><use x="2464" y="3692" href="#P7"></use><use x="2456" y="3862" href="#P5"></use><use x="2469" y="4066" href="#P4"></use><use x="2426" y="4488" href="#P6"></use><use x="2295" y="4668" href="#P11"></use><use x="2271" y="4942" href="#P6"></use><use x="2435" y="4975" href="#P10"></use><use x="2462" y="5364" href="#P9"></use><use x="2594" y="-125" href="#P5"></use><use x="2608" y="76" href="#P1"></use><use x="2531" y="217" href="#P11"></use><use x="2655" y="671" href="#P1"></use><use x="2551" y="922" href="#P3"></use><use x="2680" y="1050" href="#P10"></use><use x="2500" y="1156" href="#P10"></use><use x="2646" y="1349" href="#P7"></use><use x="2582" y="1708" href="#P10"></use><use x="2613" y="1890" href="#P3"></use><use x="2709" y="2128" href="#P9"></use><use x="2580" y="2362" href="#P3"></use><use x="2568" y="2526" href="#P6"></use><use x="2716" y="2765" href="#P11"></use><use x="2658" y="3036" href="#P5"></use><use x="2527" y="3320" href="#P6"></use><use x="2515" y="3439" href="#P11"></use><use x="2549" y="3827" href="#P1"></use><use x="2619" y="3904" href="#P2"></use><use x="2588" y="4168" href="#P7"></use><use x="2716" y="4326" href="#P10"></use><use x="2515" y="4648" href="#P9"></use><use x="2639" y="4878" href="#P10"></use><use x="2677" y="5036" href="#P6"></use><use x="2662" y="5325" href="#P9"></use><use x="2824" y="17" href="#P10"></use><use x="2943" y="128" href="#P1"></use><use x="2934" y="284" href="#P6"></use><use x="2871" y="603" href="#P1"></use><use x="2813" y="825" href="#P6"></use><use x="2897" y="932" href="#P7"></use><use x="2908" y="1146" href="#P1"></use><use x="2839" y="1462" href="#P0"></use><use x="2810" y="1739" href="#P0"></use><use x="2899" y="1997" href="#P9"></use><use x="2907" y="2172" href="#P10"></use><use x="2746" y="2238" href="#P7"></use><use x="2772" y="2683" href="#P11"></use><use x="2915" y="2844" href="#P11"></use><use x="2807" y="2947" href="#P5"></use><use x="2891" y="3171" href="#P4"></use><use x="2906" y="3488" href="#P6"></use><use x="2917" y="3710" href="#P9"></use><use x="2769" y="3908" href="#P4"></use><use x="2785" y="4160" href="#P9"></use><use x="2941" y="4312" href="#P3"></use><use x="2734" y="4725" href="#P10"></use><use x="2798" y="4889" href="#P3"></use><use x="2803" y="5024" href="#P11"></use><use x="2868" y="5279" href="#P1"></use><use x="3111" y="-41" href="#P5"></use><use x="3075" y="42" href="#P7"></use><use x="3010" y="313" href="#P5"></use><use x="3019" y="587" href="#P0"></use><use x="3166" y="744" href="#P10"></use><use x="3106" y="1001" href="#P5"></use><use x="3170" y="1204" href="#P8"></use><use x="3086" y="1413" href="#P7"></use><use x="3002" y="1712" href="#P2"></use><use x="3099" y="2014" href="#P8"></use><use x="2945" y="2199" href="#P4"></use><use x="3101" y="2432" href="#P0"></use><use x="3066" y="2533" href="#P1"></use><use x="3152" y="2865" href="#P10"></use><use x="3169" y="3086" href="#P7"></use><use x="3116" y="3144" href="#P9"></use><use x="3139" y="3558" href="#P9"></use><use x="3135" y="3696" href="#P1"></use><use x="3129" y="3825" href="#P4"></use><use x="3009" y="4151" href="#P8"></use><use x="3073" y="4518" href="#P1"></use><use x="3052" y="4573" href="#P2"></use><use x="3179" y="4771" href="#P6"></use><use x="3031" y="5130" href="#P6"></use><use x="3076" y="5268" href="#P7"></use><use x="3230" y="-176" href="#P3"></use><use x="3336" y="188" href="#P8"></use><use x="3307" y="210" href="#P8"></use><use x="3204" y="476" href="#P1"></use><use x="3186" y="794" href="#P8"></use><use x="3361" y="1092" href="#P4"></use><use x="3276" y="1276" href="#P5"></use><use x="3360" y="1519" href="#P1"></use><use x="3318" y="1640" href="#P1"></use><use x="3297" y="2001" href="#P1"></use><use x="3186" y="2038" href="#P9"></use><use x="3198" y="2314" href="#P7"></use><use x="3374" y="2560" href="#P10"></use><use x="3196" y="2846" href="#P7"></use><use x="3374" y="3156" href="#P4"></use><use x="3229" y="3352" href="#P4"></use><use x="3323" y="3590" href="#P11"></use><use x="3274" y="3736" href="#P8"></use><use x="3350" y="3828" href="#P1"></use><use x="3298" y="4117" href="#P10"></use><use x="3279" y="4421" href="#P7"></use><use x="3335" y="4670" href="#P3"></use><use x="3209" y="4861" href="#P11"></use><use x="3189" y="4928" href="#P11"></use><use x="3392" y="5207" href="#P1"></use><use x="3607" y="-207" href="#P2"></use><use x="3516" y="130" href="#P9"></use><use x="3460" y="264" href="#P4"></use><use x="3458" y="533" href="#P3"></use><use x="3409" y="881" href="#P3"></use><use x="3550" y="941" href="#P3"></use><use x="3531" y="1229" href="#P1"></use><use x="3522" y="1486" href="#P9"></use><use x="3466" y="1589" href="#P0"></use><use x="3662" y="1967" href="#P2"></use><use x="3497" y="2056" href="#P0"></use><use x="3650" y="2329" href="#P11"></use><use x="3444" y="2546" href="#P9"></use><use x="3536" y="2758" href="#P7"></use><use x="3536" y="3010" href="#P2"></use><use x="3584" y="3285" href="#P3"></use><use x="3591" y="3372" href="#P0"></use><use x="3504" y="3621" href="#P0"></use><use x="3561" y="3835" href="#P0"></use><use x="3529" y="4200" href="#P6"></use><use x="3571" y="4344" href="#P8"></use><use x="3608" y="4530" href="#P11"></use><use x="3525" y="4743" href="#P10"></use><use x="3568" y="5117" href="#P7"></use><use x="3557" y="5222" href="#P1"></use><use x="3713" y="-206" href="#P11"></use><use x="3685" y="214" href="#P1"></use><use x="3687" y="384" href="#P2"></use><use x="3839" y="572" href="#P6"></use><use x="3842" y="845" href="#P4"></use><use x="3702" y="1060" href="#P4"></use><use x="3635" y="1288" href="#P1"></use><use x="3715" y="1551" href="#P5"></use><use x="3673" y="1733" href="#P4"></use><use x="3804" y="1962" href="#P1"></use><use x="3742" y="2169" href="#P7"></use><use x="3850" y="2364" href="#P2"></use><use x="3723" y="2567" href="#P5"></use><use x="3889" y="2788" href="#P0"></use><use x="3750" y="3079" href="#P10"></use><use x="3821" y="3195" href="#P11"></use><use x="3718" y="3399" href="#P7"></use><use x="3793" y="3585" href="#P4"></use><use x="3800" y="3824" href="#P7"></use><use x="3810" y="4185" href="#P8"></use><use x="3761" y="4304" href="#P6"></use><use x="3674" y="4683" href="#P3"></use><use x="3830" y="4762" href="#P9"></use><use x="3714" y="5059" href="#P0"></use><use x="3878" y="5275" href="#P7"></use><use x="4003" y="-64" href="#P11"></use><use x="4048" y="-10" href="#P2"></use><use x="3892" y="313" href="#P6"></use><use x="4026" y="608" href="#P6"></use><use x="3920" y="635" href="#P4"></use><use x="4066" y="868" href="#P5"></use><use x="3979" y="1330" href="#P0"></use><use x="3988" y="1367" href="#P0"></use><use x="3842" y="1782" href="#P5"></use><use x="3858" y="1838" href="#P9"></use><use x="3944" y="2235" href="#P0"></use><use x="3931" y="2306" href="#P10"></use><use x="3915" y="2627" href="#P11"></use><use x="3955" y="2724" href="#P8"></use><use x="3897" y="2982" href="#P6"></use><use x="3997" y="3327" href="#P9"></use><use x="3939" y="3406" href="#P6"></use><use x="4020" y="3738" href="#P3"></use><use x="4100" y="3870" href="#P1"></use><use x="4035" y="4165" href="#P11"></use><use x="4002" y="4389" href="#P10"></use><use x="3915" y="4540" href="#P7"></use><use x="3980" y="4775" href="#P7"></use><use x="3900" y="5124" href="#P11"></use><use x="4070" y="5413" href="#P10"></use><use x="4250" y="-160" href="#P9"></use><use x="4171" y="-62" href="#P9"></use><use x="4191" y="395" href="#P5"></use><use x="4289" y="647" href="#P2"></use><use x="4253" y="752" href="#P0"></use><use x="4144" y="889" href="#P11"></use><use x="4230" y="1289" href="#P9"></use><use x="4364" y="1330" href="#P4"></use><use x="4199" y="1708" href="#P11"></use><use x="4184" y="1812" href="#P4"></use><use x="4068" y="2113" href="#P11"></use><use x="4172" y="2280" href="#P11"></use><use x="4315" y="2543" href="#P7"></use><use x="4300" y="2740" href="#P5"></use><use x="4092" y="3094" href="#P9"></use><use x="4281" y="3133" href="#P3"></use><use x="4184" y="3555" href="#P3"></use><use x="4326" y="3782" href="#P3"></use><use x="4279" y="3872" href="#P6"></use><use x="4285" y="4130" href="#P3"></use><use x="4159" y="4313" href="#P11"></use><use x="4268" y="4544" href="#P2"></use><use x="4279" y="4848" href="#P5"></use><use x="4353" y="5074" href="#P6"></use><use x="4190" y="5298" href="#P0"></use><use x="4472" y="-167" href="#P9"></use><use x="4420" y="125" href="#P0"></use><use x="4602" y="158" href="#P11"></use><use x="4520" y="662" href="#P3"></use><use x="4367" y="859" href="#P2"></use><use x="4396" y="1005" href="#P1"></use><use x="4438" y="1306" href="#P2"></use><use x="4503" y="1371" href="#P8"></use><use x="4589" y="1637" href="#P9"></use><use x="4363" y="1812" href="#P11"></use><use x="4531" y="2150" href="#P5"></use><use x="4383" y="2399" href="#P3"></use><use x="4323" y="2472" href="#P5"></use><use x="4568" y="2859" href="#P10"></use><use x="4420" y="2920" href="#P4"></use><use x="4451" y="3279" href="#P9"></use><use x="4507" y="3557" href="#P6"></use><use x="4473" y="3722" href="#P7"></use><use x="4381" y="3892" href="#P4"></use><use x="4389" y="4041" href="#P7"></use><use x="4535" y="4457" href="#P0"></use><use x="4366" y="4483" href="#P11"></use><use x="4531" y="4935" href="#P7"></use><use x="4453" y="5032" href="#P6"></use><use x="4553" y="5211" href="#P9"></use><use x="4598" y="-155" href="#P9"></use><use x="4707" y="33" href="#P7"></use><use x="4774" y="287" href="#P8"></use><use x="4644" y="521" href="#P8"></use><use x="4747" y="883" href="#P3"></use><use x="4759" y="923" href="#P5"></use><use x="4611" y="1186" href="#P6"></use><use x="4662" y="1407" href="#P9"></use><use x="4653" y="1606" href="#P8"></use><use x="4716" y="1870" href="#P8"></use><use x="4652" y="2137" href="#P8"></use><use x="4746" y="2426" href="#P2"></use><use x="4630" y="2659" href="#P8"></use><use x="4783" y="2804" href="#P5"></use><use x="4766" y="3115" href="#P10"></use><use x="4785" y="3339" href="#P5"></use><use x="4693" y="3537" href="#P1"></use><use x="4625" y="3701" href="#P9"></use><use x="4595" y="3960" href="#P4"></use><use x="4629" y="4159" href="#P10"></use><use x="4569" y="4281" href="#P5"></use><use x="4615" y="4717" href="#P6"></use><use x="4627" y="4947" href="#P1"></use><use x="4703" y="5090" href="#P10"></use><use x="4571" y="5242" href="#P1"></use><use x="4910" y="-214" href="#P4"></use><use x="4982" y="186" href="#P11"></use><use x="4964" y="216" href="#P1"></use><use x="5031" y="460" href="#P8"></use><use x="4815" y="727" href="#P0"></use><use x="4826" y="1109" href="#P4"></use><use x="4852" y="1340" href="#P10"></use><use x="4903" y="1434" href="#P4"></use><use x="4824" y="1594" href="#P3"></use><use x="4864" y="1881" href="#P0"></use><use x="4957" y="2133" href="#P5"></use><use x="4952" y="2417" href="#P6"></use><use x="4912" y="2582" href="#P9"></use><use x="4865" y="2723" href="#P11"></use><use x="4889" y="2983" href="#P6"></use><use x="4803" y="3283" href="#P0"></use><use x="4934" y="3476" href="#P5"></use><use x="4927" y="3595" href="#P9"></use><use x="4966" y="3882" href="#P1"></use><use x="4969" y="4042" href="#P5"></use><use x="4863" y="4507" href="#P11"></use><use x="4896" y="4575" href="#P11"></use><use x="4989" y="4786" href="#P1"></use><use x="4822" y="5015" href="#P11"></use><use x="4850" y="5181" href="#P2"></use><use x="5099" y="-64" href="#P0"></use><use x="5207" y="186" href="#P2"></use><use x="5061" y="253" href="#P8"></use><use x="5246" y="601" href="#P9"></use><use x="5160" y="750" href="#P11"></use><use x="5233" y="853" href="#P1"></use><use x="5085" y="1130" href="#P1"></use><use x="5173" y="1469" href="#P9"></use><use x="5108" y="1654" href="#P2"></use><use x="5132" y="1954" href="#P4"></use><use x="5165" y="2019" href="#P10"></use><use x="4997" y="2273" href="#P6"></use><use x="5057" y="2668" href="#P8"></use><use x="5086" y="2764" href="#P6"></use><use x="5219" y="3064" href="#P7"></use><use x="5067" y="3255" href="#P4"></use><use x="5248" y="3547" href="#P1"></use><use x="5135" y="3720" href="#P7"></use><use x="5226" y="3874" href="#P8"></use><use x="5197" y="4123" href="#P3"></use><use x="5269" y="4296" href="#P9"></use><use x="5083" y="4546" href="#P10"></use><use x="5107" y="4829" href="#P3"></use><use x="4981" y="4939" href="#P11"></use><use x="5240" y="5244" href="#P0"></use></g></svg>